<svg width="1391" height="328" viewBox="0 0 1391 328" fill="none" xmlns="http://www.w3.org/2000/svg">
<path d="M506.33 253.532C493.76 253.532 482.34 250.772 472.06 245.252C461.78 239.732 453.63 232.002 447.6 222.072C441.57 212.132 438.56 200.632 438.56 187.552C438.56 174.472 441.62 162.502 447.73 152.642C453.84 142.792 462.13 135.102 472.57 129.582C483.02 124.062 494.86 121.302 508.11 121.302C522.72 121.302 534.48 124.232 543.4 130.092C552.32 135.952 558.81 143.892 562.89 153.912C566.97 163.932 569 175.142 569 187.542C569 195.022 567.81 202.622 565.43 210.342C563.05 218.072 559.4 225.212 554.47 231.742C549.54 238.282 543.09 243.552 535.11 247.542C527.12 251.532 517.53 253.532 506.32 253.532H506.33ZM517.03 228.052C527.05 228.052 535.71 226.352 543.02 222.952C550.32 219.552 555.93 214.802 559.83 208.682C563.74 202.562 565.69 195.522 565.69 187.532C565.69 178.872 563.69 171.522 559.7 165.492C555.71 159.462 550.1 154.882 542.88 151.732C535.66 148.592 527.04 147.022 517.02 147.022C502.92 147.022 491.96 150.712 484.15 158.102C476.34 165.492 472.43 175.302 472.43 187.532C472.43 195.682 474.3 202.782 478.03 208.802C481.76 214.832 486.99 219.542 493.7 222.942C500.41 226.342 508.18 228.042 517.01 228.042L517.03 228.052ZM565.69 124.102H598.81V250.722H567.98C567.13 244.102 566.53 238.242 566.2 233.142C565.86 228.052 565.69 223.042 565.69 218.112V124.102Z" fill="#0A0A0A"/>
<path d="M623.78 208.692H654.35C656.22 214.472 660.08 219.182 665.94 222.832C671.8 226.482 679.48 228.312 689 228.312C695.45 228.312 700.46 227.722 704.03 226.532C707.6 225.342 710.06 223.602 711.42 221.312C712.78 219.022 713.46 216.432 713.46 213.542C713.46 209.972 712.35 207.212 710.15 205.262C707.94 203.312 704.55 201.742 699.96 200.552C695.37 199.362 689.51 198.262 682.38 197.242C675.25 196.052 668.37 194.612 661.74 192.912C655.12 191.212 649.26 188.962 644.16 186.162C639.06 183.362 635.03 179.792 632.06 175.462C629.09 171.132 627.6 165.822 627.6 159.542C627.6 153.262 629.08 147.992 632.06 143.232C635.03 138.482 639.19 134.482 644.54 131.262C649.89 128.042 656.17 125.572 663.39 123.872C670.61 122.172 678.38 121.322 686.7 121.322C699.27 121.322 709.71 123.152 718.04 126.802C726.36 130.452 732.6 135.552 736.77 142.092C740.93 148.632 743.01 156.152 743.01 164.642H713.71C712.35 158.362 709.63 153.812 705.56 151.012C701.48 148.212 695.2 146.812 686.71 146.812C678.22 146.812 672.1 148.082 667.86 150.632C663.61 153.182 661.49 156.662 661.49 161.082C661.49 164.652 662.8 167.412 665.44 169.362C668.07 171.312 671.98 172.892 677.16 174.072C682.34 175.262 688.84 176.532 696.65 177.892C703.27 179.252 709.6 180.782 715.63 182.482C721.66 184.182 727.05 186.352 731.81 188.982C736.56 191.622 740.35 195.102 743.15 199.432C745.95 203.762 747.35 209.242 747.35 215.862C747.35 224.012 745.01 230.892 740.34 236.502C735.67 242.112 729 246.402 720.34 249.372C711.68 252.342 701.32 253.832 689.26 253.832C678.56 253.832 669.34 252.682 661.62 250.392C653.89 248.102 647.48 245.132 642.38 241.472C637.28 237.822 633.34 233.912 630.53 229.752C627.73 225.592 625.82 221.642 624.8 217.902C623.78 214.172 623.44 211.112 623.78 208.732V208.692Z" fill="#0A0A0A"/>
<path d="M763.66 124.102H862V149.832H763.66V124.102ZM796.27 89.4523H829.39V250.722H796.27V89.4523Z" fill="#0A0A0A"/>
<path d="M943.02 253.532C930.45 253.532 919.03 250.772 908.75 245.252C898.47 239.732 890.32 232.002 884.29 222.072C878.26 212.132 875.25 200.632 875.25 187.552C875.25 174.472 878.31 162.502 884.42 152.642C890.53 142.792 898.81 135.102 909.26 129.582C919.71 124.062 931.55 121.302 944.8 121.302C959.41 121.302 971.17 124.232 980.09 130.092C989.01 135.952 995.5 143.892 999.58 153.912C1003.66 163.932 1005.69 175.142 1005.69 187.542C1005.69 195.022 1004.5 202.622 1002.12 210.342C999.74 218.072 996.09 225.212 991.16 231.742C986.23 238.282 979.78 243.552 971.8 247.542C963.81 251.532 954.22 253.532 943.01 253.532H943.02ZM953.72 228.052C963.74 228.052 972.4 226.352 979.71 222.952C987.01 219.552 992.62 214.802 996.52 208.682C1000.43 202.562 1002.38 195.522 1002.38 187.532C1002.38 178.872 1000.38 171.522 996.39 165.492C992.4 159.462 986.79 154.882 979.58 151.732C972.36 148.592 963.74 147.022 953.72 147.022C939.62 147.022 928.67 150.712 920.85 158.102C913.04 165.492 909.13 175.302 909.13 187.532C909.13 195.682 911 202.782 914.74 208.802C918.47 214.832 923.7 219.542 930.41 222.942C937.12 226.342 944.89 228.042 953.72 228.042V228.052ZM1002.38 124.102H1035.5V250.722H1004.67C1003.82 244.102 1003.22 238.242 1002.89 233.142C1002.55 228.052 1002.38 223.042 1002.38 218.112V124.102Z" fill="#0A0A0A"/>
<path d="M1065.57 124.102H1098.69V250.722H1065.57V124.102ZM1147.35 151.362C1137.84 151.362 1129.6 153.192 1122.64 156.842C1115.67 160.492 1110.07 164.952 1105.83 170.222C1101.58 175.492 1098.61 180.582 1096.91 185.512L1096.66 171.502C1096.83 169.462 1097.51 166.452 1098.7 162.462C1099.89 158.472 1101.67 154.142 1104.05 149.472C1106.43 144.802 1109.57 140.302 1113.48 135.972C1117.39 131.642 1122.14 128.122 1127.75 125.402C1133.36 122.682 1139.89 121.322 1147.37 121.322V151.382L1147.35 151.362Z" fill="#0A0A0A"/>
<path d="M1205.69 68.5623V97.6023H1167.22V68.5623H1205.69ZM1169.77 124.102H1202.89V250.722H1169.77V124.102Z" fill="#0A0A0A"/>
<path d="M1297.66 253.532C1285.09 253.532 1273.67 250.772 1263.39 245.252C1253.11 239.732 1244.96 232.002 1238.93 222.072C1232.9 212.132 1229.89 200.632 1229.89 187.552C1229.89 174.472 1232.95 162.502 1239.06 152.642C1245.18 142.792 1253.46 135.102 1263.9 129.582C1274.35 124.062 1286.19 121.302 1299.44 121.302C1314.05 121.302 1325.81 124.232 1334.73 130.092C1343.65 135.952 1350.14 143.892 1354.22 153.912C1358.3 163.932 1360.34 175.142 1360.34 187.542C1360.34 195.022 1359.15 202.622 1356.77 210.342C1354.39 218.072 1350.74 225.212 1345.81 231.742C1340.88 238.282 1334.43 243.552 1326.45 247.542C1318.46 251.532 1308.87 253.532 1297.66 253.532ZM1308.36 228.052C1318.38 228.052 1327.04 226.352 1334.35 222.952C1341.65 219.552 1347.26 214.802 1351.17 208.682C1355.08 202.562 1357.03 195.522 1357.03 187.532C1357.03 178.872 1355.03 171.522 1351.04 165.492C1347.05 159.462 1341.44 154.882 1334.22 151.732C1327 148.592 1318.38 147.022 1308.36 147.022C1294.26 147.022 1283.3 150.712 1275.49 158.102C1267.68 165.492 1263.77 175.302 1263.77 187.532C1263.77 195.682 1265.64 202.782 1269.37 208.802C1273.1 214.832 1278.33 219.542 1285.04 222.942C1291.75 226.342 1299.52 228.042 1308.35 228.042L1308.36 228.052ZM1357.02 124.102H1390.14V250.722H1359.31C1358.46 244.102 1357.86 238.242 1357.53 233.142C1357.19 228.052 1357.02 223.042 1357.02 218.112V124.102Z" fill="#0A0A0A"/>
<path d="M81.0399 226.772C90.2099 214.382 90.2099 193.472 81.0399 181.082C63.3899 157.572 44.5199 135.272 24.4399 114.182C45.5299 134.262 67.8199 153.132 91.3399 170.782C103.73 179.952 124.1 179.172 137.03 170.782C142.13 167.472 145.37 165.192 150.78 160.212L269.28 46.8023C269.28 46.8023 267.27 43.5823 267.24 43.5423C261.96 35.3223 256.51 26.7923 249.58 19.7123C241.88 11.8423 232.41 6.65231 222.01 3.20231C200.89 -3.80769 179.43 2.03231 158.8 7.92231C138.17 13.8123 116.66 21.9023 96.5399 31.2523C89.3399 34.6023 82.2299 38.1423 75.2099 41.8523C65.3099 47.0923 55.6199 52.7223 46.1499 58.7023C31.5299 67.9423 17.5399 76.4823 8.92993 92.0223C-1.48007 110.842 -1.88007 130.072 3.08993 150.682C8.15993 171.702 14.7599 192.362 22.8699 212.412C30.3799 230.972 39.1899 249.002 49.1999 266.342C60.2199 253.562 70.8299 240.372 81.0399 226.782V226.772Z" fill="#0A0A0A"/>
<path d="M271.24 49.9423L158.04 167.492C152.8 172.862 150.74 176.262 147.47 181.242C139.01 194.132 138.3 214.542 147.47 226.932C165.12 250.442 183.99 272.742 204.07 293.832C182.98 273.752 160.69 254.882 137.17 237.232C124.78 228.062 103.87 228.062 91.4799 237.232C77.6199 247.642 64.1799 258.462 51.1599 269.712C50.4899 270.292 62.7899 288.402 63.9499 290.152C72.6399 303.242 81.2599 313.912 95.6599 320.862C115.12 330.262 134.55 328.712 155.05 323.532C175.18 318.452 194.95 311.962 214.15 304.082C231.46 296.972 248.3 288.722 264.55 279.432C272.77 274.732 280.84 269.772 288.74 264.562C301.85 255.912 312.89 247.482 320.07 233.142C329.91 213.492 328.61 194.002 323.36 173.162C318.13 152.352 311.39 131.922 303.17 112.102C294.64 91.5423 284.5 71.6623 272.92 52.6523C272.92 52.6423 271.23 49.9523 271.22 49.9423H271.24Z" fill="#0A0A0A"/>
</svg>
